<svg width="26" height="20" viewBox="0 0 26 20" fill="none" xmlns="http://www.w3.org/2000/svg">
<path fill-rule="evenodd" clip-rule="evenodd" d="M13.5945 7.08035C14.9509 6.62217 15.9274 5.33924 15.9274 3.82822C15.9274 1.93286 14.3909 0.396362 12.4956 0.396362C10.6002 0.396362 9.0637 1.93286 9.0637 3.82822C9.0637 5.33925 10.0402 6.62219 11.3966 7.08036C10.2361 7.29973 9.1587 7.86343 8.31166 8.71048C7.20201 9.82013 6.57861 11.3251 6.57861 12.8944L12.4956 12.8944H18.4126C18.4126 11.3251 17.7892 9.82013 16.6795 8.71048C15.8325 7.86342 14.755 7.29971 13.5945 7.08035Z" fill="#3C4854"/>
<path fill-rule="evenodd" clip-rule="evenodd" d="M7.20876 13.3294C8.56514 12.8712 9.54167 11.5883 9.54167 10.0772C9.54167 8.18188 8.00518 6.64539 6.10981 6.64539C4.21445 6.64539 2.67796 8.18188 2.67796 10.0772C2.67796 11.5883 3.6545 12.8712 5.0109 13.3294C3.85038 13.5487 2.77296 14.1125 1.92592 14.9595C0.816266 16.0691 0.192871 17.5742 0.192871 19.1434H6.10985H12.0268C12.0268 17.5742 11.4034 16.0691 10.2938 14.9595C9.44674 14.1124 8.3693 13.5487 7.20876 13.3294Z" fill="#338EFF"/>
<path fill-rule="evenodd" clip-rule="evenodd" d="M20.2439 13.3294C21.6003 12.8712 22.5768 11.5883 22.5768 10.0773C22.5768 8.18191 21.0403 6.64542 19.145 6.64542C17.2496 6.64542 15.7131 8.18191 15.7131 10.0773C15.7131 11.5883 16.6897 12.8712 18.0461 13.3294C16.8855 13.5488 15.8081 14.1125 14.9611 14.9595C13.8514 16.0692 13.228 17.5742 13.228 19.1435L19.145 19.1435H25.062C25.062 17.5742 24.4386 16.0692 23.3289 14.9595C22.4819 14.1125 21.4045 13.5488 20.2439 13.3294Z" fill="#338EFF"/>
</svg>
