<svg width="30" height="27" viewBox="0 0 30 27" fill="none" xmlns="http://www.w3.org/2000/svg">
<path d="M24.9814 5.93379L24.0341 4.94864L18.737 10.222L19.6608 11.1813C21.3369 12.9328 14.3907 19.8071 12.6477 18.1275L11.7396 17.1879L6.43749 22.4658L7.35201 23.4099C12.9845 28.9658 30.302 11.7561 24.9814 5.93379Z" fill="#3C4854"/>
<path d="M16.6613 8.16522L18.0423 9.53995L23.3443 4.26212L21.9631 2.88642L16.6613 8.16522Z" fill="#3C4854"/>
<path d="M4.36585 20.4048L5.74679 21.7795L11.0479 16.5019L9.6667 15.1262L4.36585 20.4048Z" fill="#3C4854"/>
<path d="M21.9823 2.74486L23.3616 4.25195L17.9761 9.66467L16.5164 8.22827L21.9823 2.74486Z" fill="#338EFF"/>
<path d="M9.76892 14.9363L11.1482 16.4434L5.76273 21.8561L4.30304 20.4197L9.76892 14.9363Z" fill="#338EFF"/>
</svg>
