<svg width="108" height="99" viewBox="0 0 108 99" fill="none" xmlns="http://www.w3.org/2000/svg">
<g filter="url(#filter0_d)">
<circle cx="6.42049" cy="3.42049" r="3.42049" fill="#FF5D4D" fill-opacity="0.87"/>
<circle cx="16.993" cy="3.42049" r="3.42049" fill="#FF5D4D" fill-opacity="0.87"/>
<circle cx="27.5653" cy="3.42049" r="3.42049" fill="#FF5D4D" fill-opacity="0.87"/>
<circle cx="38.1378" cy="3.42049" r="3.42049" fill="#FF5D4D" fill-opacity="0.87"/>
<circle cx="48.7103" cy="3.42049" r="3.42049" fill="#FF5D4D" fill-opacity="0.87"/>
<circle cx="59.2826" cy="3.42049" r="3.42049" fill="#FF5D4D" fill-opacity="0.87"/>
<circle cx="69.8551" cy="3.42049" r="3.42049" fill="#FF5D4D" fill-opacity="0.87"/>
<circle cx="80.4276" cy="3.42049" r="3.42049" fill="#FF5D4D" fill-opacity="0.87"/>
<circle cx="91.0001" cy="3.42049" r="3.42049" fill="#FF5D4D" fill-opacity="0.87"/>
<circle cx="101.572" cy="3.42049" r="3.42049" fill="#FF5D4D" fill-opacity="0.87"/>
<circle cx="6.42049" cy="13.9929" r="3.42049" fill="#FF5D4D" fill-opacity="0.87"/>
<circle cx="16.993" cy="13.9929" r="3.42049" fill="#FF5D4D" fill-opacity="0.87"/>
<circle cx="27.5653" cy="13.9929" r="3.42049" fill="#FF5D4D" fill-opacity="0.87"/>
<circle cx="38.1378" cy="13.9929" r="3.42049" fill="#FF5D4D" fill-opacity="0.87"/>
<circle cx="48.7103" cy="13.9929" r="3.42049" fill="#FF5D4D" fill-opacity="0.87"/>
<circle cx="59.2826" cy="13.9929" r="3.42049" fill="#FF5D4D" fill-opacity="0.87"/>
<circle cx="69.8551" cy="13.9929" r="3.42049" fill="#FF5D4D" fill-opacity="0.87"/>
<circle cx="80.4276" cy="13.9929" r="3.42049" fill="#FF5D4D" fill-opacity="0.87"/>
<circle cx="91.0001" cy="13.9929" r="3.42049" fill="#FF5D4D" fill-opacity="0.87"/>
<circle cx="101.572" cy="13.9929" r="3.42049" fill="#FF5D4D" fill-opacity="0.87"/>
<circle cx="6.42049" cy="24.5654" r="3.42049" fill="#FF5D4D" fill-opacity="0.87"/>
<circle cx="16.993" cy="24.5654" r="3.42049" fill="#FF5D4D" fill-opacity="0.87"/>
<circle cx="27.5653" cy="24.5654" r="3.42049" fill="#FF5D4D" fill-opacity="0.87"/>
<circle cx="38.1378" cy="24.5654" r="3.42049" fill="#FF5D4D" fill-opacity="0.87"/>
<circle cx="48.7103" cy="24.5654" r="3.42049" fill="#FF5D4D" fill-opacity="0.87"/>
<circle cx="59.2826" cy="24.5654" r="3.42049" fill="#FF5D4D" fill-opacity="0.87"/>
<circle cx="69.8551" cy="24.5654" r="3.42049" fill="#FF5D4D" fill-opacity="0.87"/>
<circle cx="80.4276" cy="24.5654" r="3.42049" fill="#FF5D4D" fill-opacity="0.87"/>
<circle cx="91.0001" cy="24.5654" r="3.42049" fill="#FF5D4D" fill-opacity="0.87"/>
<circle cx="101.572" cy="24.5654" r="3.42049" fill="#FF5D4D" fill-opacity="0.87"/>
<circle cx="6.42049" cy="35.1378" r="3.42049" fill="#FF5D4D" fill-opacity="0.87"/>
<circle cx="16.993" cy="35.1378" r="3.42049" fill="#FF5D4D" fill-opacity="0.87"/>
<circle cx="27.5653" cy="35.1378" r="3.42049" fill="#FF5D4D" fill-opacity="0.87"/>
<circle cx="38.1378" cy="35.1378" r="3.42049" fill="#FF5D4D" fill-opacity="0.87"/>
<circle cx="48.7103" cy="35.1378" r="3.42049" fill="#FF5D4D" fill-opacity="0.87"/>
<circle cx="59.2826" cy="35.1378" r="3.42049" fill="#FF5D4D" fill-opacity="0.87"/>
<circle cx="69.8551" cy="35.1378" r="3.42049" fill="#FF5D4D" fill-opacity="0.87"/>
<circle cx="80.4276" cy="35.1378" r="3.42049" fill="#FF5D4D" fill-opacity="0.87"/>
<circle cx="91.0001" cy="35.1378" r="3.42049" fill="#FF5D4D" fill-opacity="0.87"/>
<circle cx="101.572" cy="35.1378" r="3.42049" fill="#FF5D4D" fill-opacity="0.87"/>
<circle cx="6.42049" cy="45.7103" r="3.42049" fill="#FF5D4D" fill-opacity="0.87"/>
<circle cx="16.993" cy="45.7103" r="3.42049" fill="#FF5D4D" fill-opacity="0.87"/>
<circle cx="27.5653" cy="45.7103" r="3.42049" fill="#FF5D4D" fill-opacity="0.87"/>
<circle cx="38.1378" cy="45.7103" r="3.42049" fill="#FF5D4D" fill-opacity="0.87"/>
<circle cx="48.7103" cy="45.7103" r="3.42049" fill="#FF5D4D" fill-opacity="0.87"/>
<circle cx="59.2826" cy="45.7103" r="3.42049" fill="#FF5D4D" fill-opacity="0.87"/>
<circle cx="69.8551" cy="45.7103" r="3.42049" fill="#FF5D4D" fill-opacity="0.87"/>
<circle cx="80.4276" cy="45.7103" r="3.42049" fill="#FF5D4D" fill-opacity="0.87"/>
<circle cx="91.0001" cy="45.7103" r="3.42049" fill="#FF5D4D" fill-opacity="0.87"/>
<circle cx="101.572" cy="45.7103" r="3.42049" fill="#FF5D4D" fill-opacity="0.87"/>
<circle cx="6.42049" cy="56.2827" r="3.42049" fill="#FF5D4D" fill-opacity="0.87"/>
<circle cx="16.993" cy="56.2827" r="3.42049" fill="#FF5D4D" fill-opacity="0.87"/>
<circle cx="27.5653" cy="56.2827" r="3.42049" fill="#FF5D4D" fill-opacity="0.87"/>
<circle cx="38.1378" cy="56.2827" r="3.42049" fill="#FF5D4D" fill-opacity="0.87"/>
<circle cx="48.7103" cy="56.2827" r="3.42049" fill="#FF5D4D" fill-opacity="0.87"/>
<circle cx="59.2826" cy="56.2827" r="3.42049" fill="#FF5D4D" fill-opacity="0.87"/>
<circle cx="69.8551" cy="56.2827" r="3.42049" fill="#FF5D4D" fill-opacity="0.87"/>
<circle cx="80.4276" cy="56.2827" r="3.42049" fill="#FF5D4D" fill-opacity="0.87"/>
<circle cx="91.0001" cy="56.2827" r="3.42049" fill="#FF5D4D" fill-opacity="0.87"/>
<circle cx="101.572" cy="56.2827" r="3.42049" fill="#FF5D4D" fill-opacity="0.87"/>
<circle cx="6.42049" cy="66.8551" r="3.42049" fill="#FF5D4D" fill-opacity="0.87"/>
<circle cx="16.993" cy="66.8551" r="3.42049" fill="#FF5D4D" fill-opacity="0.87"/>
<circle cx="27.5653" cy="66.8551" r="3.42049" fill="#FF5D4D" fill-opacity="0.87"/>
<circle cx="38.1378" cy="66.8551" r="3.42049" fill="#FF5D4D" fill-opacity="0.87"/>
<circle cx="48.7103" cy="66.8551" r="3.42049" fill="#FF5D4D" fill-opacity="0.87"/>
<circle cx="59.2826" cy="66.8551" r="3.42049" fill="#FF5D4D" fill-opacity="0.87"/>
<circle cx="69.8551" cy="66.8551" r="3.42049" fill="#FF5D4D" fill-opacity="0.87"/>
<circle cx="80.4276" cy="66.8551" r="3.42049" fill="#FF5D4D" fill-opacity="0.87"/>
<circle cx="91.0001" cy="66.8551" r="3.42049" fill="#FF5D4D" fill-opacity="0.87"/>
<circle cx="101.572" cy="66.8551" r="3.42049" fill="#FF5D4D" fill-opacity="0.87"/>
<circle cx="6.42049" cy="77.4276" r="3.42049" fill="#FF5D4D" fill-opacity="0.87"/>
<circle cx="16.993" cy="77.4276" r="3.42049" fill="#FF5D4D" fill-opacity="0.87"/>
<circle cx="27.5653" cy="77.4276" r="3.42049" fill="#FF5D4D" fill-opacity="0.87"/>
<circle cx="38.1378" cy="77.4276" r="3.42049" fill="#FF5D4D" fill-opacity="0.87"/>
<circle cx="48.7103" cy="77.4276" r="3.42049" fill="#FF5D4D" fill-opacity="0.87"/>
<circle cx="59.2826" cy="77.4276" r="3.42049" fill="#FF5D4D" fill-opacity="0.87"/>
<circle cx="69.8551" cy="77.4276" r="3.42049" fill="#FF5D4D" fill-opacity="0.87"/>
<circle cx="80.4276" cy="77.4276" r="3.42049" fill="#FF5D4D" fill-opacity="0.87"/>
<circle cx="91.0001" cy="77.4276" r="3.42049" fill="#FF5D4D" fill-opacity="0.87"/>
<circle cx="101.572" cy="77.4276" r="3.42049" fill="#FF5D4D" fill-opacity="0.87"/>
<circle cx="6.42049" cy="88" r="3.42049" fill="#FF5D4D" fill-opacity="0.87"/>
<circle cx="16.993" cy="88" r="3.42049" fill="#FF5D4D" fill-opacity="0.87"/>
<circle cx="27.5653" cy="88" r="3.42049" fill="#FF5D4D" fill-opacity="0.87"/>
<circle cx="38.1378" cy="88" r="3.42049" fill="#FF5D4D" fill-opacity="0.87"/>
<circle cx="48.7103" cy="88" r="3.42049" fill="#FF5D4D" fill-opacity="0.87"/>
<circle cx="59.2826" cy="88" r="3.42049" fill="#FF5D4D" fill-opacity="0.87"/>
<circle cx="69.8551" cy="88" r="3.42049" fill="#FF5D4D" fill-opacity="0.87"/>
<circle cx="80.4276" cy="88" r="3.42049" fill="#FF5D4D" fill-opacity="0.87"/>
<circle cx="91.0001" cy="88" r="3.42049" fill="#FF5D4D" fill-opacity="0.87"/>
<circle cx="101.572" cy="88" r="3.42049" fill="#FF5D4D" fill-opacity="0.87"/>
</g>
<defs>
<filter id="filter0_d" x="0" y="0" width="107.993" height="98.4205" filterUnits="userSpaceOnUse" color-interpolation-filters="sRGB">
<feFlood flood-opacity="0" result="BackgroundImageFix"/>
<feColorMatrix in="SourceAlpha" type="matrix" values="0 0 0 0 0 0 0 0 0 0 0 0 0 0 0 0 0 0 127 0"/>
<feOffset dy="4"/>
<feGaussianBlur stdDeviation="1.5"/>
<feColorMatrix type="matrix" values="0 0 0 0 1 0 0 0 0 0.364706 0 0 0 0 0.301961 0 0 0 0.18 0"/>
<feBlend mode="normal" in2="BackgroundImageFix" result="effect1_dropShadow"/>
<feBlend mode="normal" in="SourceGraphic" in2="effect1_dropShadow" result="shape"/>
</filter>
</defs>
</svg>
