<svg width="182" height="120" viewBox="0 0 182 120" fill="none" xmlns="http://www.w3.org/2000/svg">
<g filter="url(#filter0_d)">
<circle cx="6.42049" cy="3.42049" r="3.42049" fill="#338FFF" fill-opacity="0.87"/>
<circle cx="16.993" cy="3.42049" r="3.42049" fill="#338FFF" fill-opacity="0.87"/>
<circle cx="27.5654" cy="3.42049" r="3.42049" fill="#338FFF" fill-opacity="0.87"/>
<circle cx="38.1378" cy="3.42049" r="3.42049" fill="#338FFF" fill-opacity="0.87"/>
<circle cx="48.7103" cy="3.42049" r="3.42049" fill="#338FFF" fill-opacity="0.87"/>
<circle cx="59.2827" cy="3.42049" r="3.42049" fill="#338FFF" fill-opacity="0.87"/>
<circle cx="69.8551" cy="3.42049" r="3.42049" fill="#338FFF" fill-opacity="0.87"/>
<circle cx="80.4276" cy="3.42049" r="3.42049" fill="#338FFF" fill-opacity="0.87"/>
<circle cx="91" cy="3.42049" r="3.42049" fill="#338FFF" fill-opacity="0.87"/>
<circle cx="101.572" cy="3.42049" r="3.42049" fill="#338FFF" fill-opacity="0.87"/>
<circle cx="112.145" cy="3.42049" r="3.42049" fill="#338FFF" fill-opacity="0.87"/>
<circle cx="122.717" cy="3.42049" r="3.42049" fill="#338FFF" fill-opacity="0.87"/>
<circle cx="133.29" cy="3.42049" r="3.42049" fill="#338FFF" fill-opacity="0.87"/>
<circle cx="143.862" cy="3.42049" r="3.42049" fill="#338FFF" fill-opacity="0.87"/>
<circle cx="154.435" cy="3.42049" r="3.42049" fill="#338FFF" fill-opacity="0.87"/>
<circle cx="165.007" cy="3.42049" r="3.42049" fill="#338FFF" fill-opacity="0.87"/>
<circle cx="175.58" cy="3.42049" r="3.42049" fill="#338FFF" fill-opacity="0.87"/>
<circle cx="6.42049" cy="13.9929" r="3.42049" fill="#338FFF" fill-opacity="0.87"/>
<circle cx="16.993" cy="13.993" r="3.42049" fill="#338FFF" fill-opacity="0.87"/>
<circle cx="27.5654" cy="13.993" r="3.42049" fill="#338FFF" fill-opacity="0.87"/>
<circle cx="38.1378" cy="13.993" r="3.42049" fill="#338FFF" fill-opacity="0.87"/>
<circle cx="48.7103" cy="13.993" r="3.42049" fill="#338FFF" fill-opacity="0.87"/>
<circle cx="59.2827" cy="13.993" r="3.42049" fill="#338FFF" fill-opacity="0.87"/>
<circle cx="69.8551" cy="13.993" r="3.42049" fill="#338FFF" fill-opacity="0.87"/>
<circle cx="80.4276" cy="13.993" r="3.42049" fill="#338FFF" fill-opacity="0.87"/>
<circle cx="91" cy="13.993" r="3.42049" fill="#338FFF" fill-opacity="0.87"/>
<circle cx="101.572" cy="13.993" r="3.42049" fill="#338FFF" fill-opacity="0.87"/>
<circle cx="112.145" cy="13.993" r="3.42049" fill="#338FFF" fill-opacity="0.87"/>
<circle cx="122.717" cy="13.993" r="3.42049" fill="#338FFF" fill-opacity="0.87"/>
<circle cx="133.29" cy="13.993" r="3.42049" fill="#338FFF" fill-opacity="0.87"/>
<circle cx="143.862" cy="13.993" r="3.42049" fill="#338FFF" fill-opacity="0.87"/>
<circle cx="154.435" cy="13.993" r="3.42049" fill="#338FFF" fill-opacity="0.87"/>
<circle cx="165.007" cy="13.993" r="3.42049" fill="#338FFF" fill-opacity="0.87"/>
<circle cx="175.58" cy="13.993" r="3.42049" fill="#338FFF" fill-opacity="0.87"/>
<circle cx="6.42049" cy="24.5654" r="3.42049" fill="#338FFF" fill-opacity="0.87"/>
<circle cx="16.993" cy="24.5653" r="3.42049" fill="#338FFF" fill-opacity="0.87"/>
<circle cx="27.5654" cy="24.5653" r="3.42049" fill="#338FFF" fill-opacity="0.87"/>
<circle cx="38.1378" cy="24.5653" r="3.42049" fill="#338FFF" fill-opacity="0.87"/>
<circle cx="48.7103" cy="24.5653" r="3.42049" fill="#338FFF" fill-opacity="0.87"/>
<circle cx="59.2827" cy="24.5653" r="3.42049" fill="#338FFF" fill-opacity="0.87"/>
<circle cx="69.8551" cy="24.5653" r="3.42049" fill="#338FFF" fill-opacity="0.87"/>
<circle cx="80.4276" cy="24.5653" r="3.42049" fill="#338FFF" fill-opacity="0.87"/>
<circle cx="91" cy="24.5653" r="3.42049" fill="#338FFF" fill-opacity="0.87"/>
<circle cx="101.572" cy="24.5653" r="3.42049" fill="#338FFF" fill-opacity="0.87"/>
<circle cx="112.145" cy="24.5653" r="3.42049" fill="#338FFF" fill-opacity="0.87"/>
<circle cx="122.717" cy="24.5653" r="3.42049" fill="#338FFF" fill-opacity="0.87"/>
<circle cx="133.29" cy="24.5653" r="3.42049" fill="#338FFF" fill-opacity="0.87"/>
<circle cx="143.862" cy="24.5653" r="3.42049" fill="#338FFF" fill-opacity="0.87"/>
<circle cx="154.435" cy="24.5653" r="3.42049" fill="#338FFF" fill-opacity="0.87"/>
<circle cx="165.007" cy="24.5653" r="3.42049" fill="#338FFF" fill-opacity="0.87"/>
<circle cx="175.58" cy="24.5653" r="3.42049" fill="#338FFF" fill-opacity="0.87"/>
<circle cx="6.42049" cy="35.1378" r="3.42049" fill="#338FFF" fill-opacity="0.87"/>
<circle cx="16.993" cy="35.1378" r="3.42049" fill="#338FFF" fill-opacity="0.87"/>
<circle cx="27.5654" cy="35.1378" r="3.42049" fill="#338FFF" fill-opacity="0.87"/>
<circle cx="38.1378" cy="35.1378" r="3.42049" fill="#338FFF" fill-opacity="0.87"/>
<circle cx="48.7103" cy="35.1378" r="3.42049" fill="#338FFF" fill-opacity="0.87"/>
<circle cx="59.2827" cy="35.1378" r="3.42049" fill="#338FFF" fill-opacity="0.87"/>
<circle cx="69.8551" cy="35.1378" r="3.42049" fill="#338FFF" fill-opacity="0.87"/>
<circle cx="80.4276" cy="35.1378" r="3.42049" fill="#338FFF" fill-opacity="0.87"/>
<circle cx="91" cy="35.1378" r="3.42049" fill="#338FFF" fill-opacity="0.87"/>
<circle cx="101.572" cy="35.1378" r="3.42049" fill="#338FFF" fill-opacity="0.87"/>
<circle cx="112.145" cy="35.1378" r="3.42049" fill="#338FFF" fill-opacity="0.87"/>
<circle cx="122.717" cy="35.1378" r="3.42049" fill="#338FFF" fill-opacity="0.87"/>
<circle cx="133.29" cy="35.1378" r="3.42049" fill="#338FFF" fill-opacity="0.87"/>
<circle cx="143.862" cy="35.1378" r="3.42049" fill="#338FFF" fill-opacity="0.87"/>
<circle cx="154.435" cy="35.1378" r="3.42049" fill="#338FFF" fill-opacity="0.87"/>
<circle cx="165.007" cy="35.1378" r="3.42049" fill="#338FFF" fill-opacity="0.87"/>
<circle cx="175.58" cy="35.1378" r="3.42049" fill="#338FFF" fill-opacity="0.87"/>
<circle cx="6.42049" cy="45.7103" r="3.42049" fill="#338FFF" fill-opacity="0.87"/>
<circle cx="16.993" cy="45.7103" r="3.42049" fill="#338FFF" fill-opacity="0.87"/>
<circle cx="27.5654" cy="45.7103" r="3.42049" fill="#338FFF" fill-opacity="0.87"/>
<circle cx="38.1378" cy="45.7103" r="3.42049" fill="#338FFF" fill-opacity="0.87"/>
<circle cx="48.7103" cy="45.7103" r="3.42049" fill="#338FFF" fill-opacity="0.87"/>
<circle cx="59.2827" cy="45.7103" r="3.42049" fill="#338FFF" fill-opacity="0.87"/>
<circle cx="69.8551" cy="45.7103" r="3.42049" fill="#338FFF" fill-opacity="0.87"/>
<circle cx="80.4276" cy="45.7103" r="3.42049" fill="#338FFF" fill-opacity="0.87"/>
<circle cx="91" cy="45.7103" r="3.42049" fill="#338FFF" fill-opacity="0.87"/>
<circle cx="101.572" cy="45.7103" r="3.42049" fill="#338FFF" fill-opacity="0.87"/>
<circle cx="112.145" cy="45.7103" r="3.42049" fill="#338FFF" fill-opacity="0.87"/>
<circle cx="122.717" cy="45.7103" r="3.42049" fill="#338FFF" fill-opacity="0.87"/>
<circle cx="133.29" cy="45.7103" r="3.42049" fill="#338FFF" fill-opacity="0.87"/>
<circle cx="143.862" cy="45.7103" r="3.42049" fill="#338FFF" fill-opacity="0.87"/>
<circle cx="154.435" cy="45.7103" r="3.42049" fill="#338FFF" fill-opacity="0.87"/>
<circle cx="165.007" cy="45.7103" r="3.42049" fill="#338FFF" fill-opacity="0.87"/>
<circle cx="175.58" cy="45.7103" r="3.42049" fill="#338FFF" fill-opacity="0.87"/>
<circle cx="6.42049" cy="56.2827" r="3.42049" fill="#338FFF" fill-opacity="0.87"/>
<circle cx="16.993" cy="56.2826" r="3.42049" fill="#338FFF" fill-opacity="0.87"/>
<circle cx="27.5654" cy="56.2826" r="3.42049" fill="#338FFF" fill-opacity="0.87"/>
<circle cx="38.1378" cy="56.2826" r="3.42049" fill="#338FFF" fill-opacity="0.87"/>
<circle cx="48.7103" cy="56.2826" r="3.42049" fill="#338FFF" fill-opacity="0.87"/>
<circle cx="59.2827" cy="56.2826" r="3.42049" fill="#338FFF" fill-opacity="0.87"/>
<circle cx="69.8551" cy="56.2826" r="3.42049" fill="#338FFF" fill-opacity="0.87"/>
<circle cx="80.4276" cy="56.2826" r="3.42049" fill="#338FFF" fill-opacity="0.87"/>
<circle cx="91" cy="56.2826" r="3.42049" fill="#338FFF" fill-opacity="0.87"/>
<circle cx="101.572" cy="56.2826" r="3.42049" fill="#338FFF" fill-opacity="0.87"/>
<circle cx="112.145" cy="56.2826" r="3.42049" fill="#338FFF" fill-opacity="0.87"/>
<circle cx="122.717" cy="56.2826" r="3.42049" fill="#338FFF" fill-opacity="0.87"/>
<circle cx="133.29" cy="56.2826" r="3.42049" fill="#338FFF" fill-opacity="0.87"/>
<circle cx="143.862" cy="56.2826" r="3.42049" fill="#338FFF" fill-opacity="0.87"/>
<circle cx="154.435" cy="56.2826" r="3.42049" fill="#338FFF" fill-opacity="0.87"/>
<circle cx="165.007" cy="56.2826" r="3.42049" fill="#338FFF" fill-opacity="0.87"/>
<circle cx="175.58" cy="56.2826" r="3.42049" fill="#338FFF" fill-opacity="0.87"/>
<circle cx="6.42049" cy="66.8551" r="3.42049" fill="#338FFF" fill-opacity="0.87"/>
<circle cx="16.993" cy="66.8551" r="3.42049" fill="#338FFF" fill-opacity="0.87"/>
<circle cx="27.5654" cy="66.8551" r="3.42049" fill="#338FFF" fill-opacity="0.87"/>
<circle cx="38.1378" cy="66.8551" r="3.42049" fill="#338FFF" fill-opacity="0.87"/>
<circle cx="48.7103" cy="66.8551" r="3.42049" fill="#338FFF" fill-opacity="0.87"/>
<circle cx="59.2827" cy="66.8551" r="3.42049" fill="#338FFF" fill-opacity="0.87"/>
<circle cx="69.8551" cy="66.8551" r="3.42049" fill="#338FFF" fill-opacity="0.87"/>
<circle cx="80.4276" cy="66.8551" r="3.42049" fill="#338FFF" fill-opacity="0.87"/>
<circle cx="91" cy="66.8551" r="3.42049" fill="#338FFF" fill-opacity="0.87"/>
<circle cx="101.572" cy="66.8551" r="3.42049" fill="#338FFF" fill-opacity="0.87"/>
<circle cx="112.145" cy="66.8551" r="3.42049" fill="#338FFF" fill-opacity="0.87"/>
<circle cx="122.717" cy="66.8551" r="3.42049" fill="#338FFF" fill-opacity="0.87"/>
<circle cx="133.29" cy="66.8551" r="3.42049" fill="#338FFF" fill-opacity="0.87"/>
<circle cx="143.862" cy="66.8551" r="3.42049" fill="#338FFF" fill-opacity="0.87"/>
<circle cx="154.435" cy="66.8551" r="3.42049" fill="#338FFF" fill-opacity="0.87"/>
<circle cx="165.007" cy="66.8551" r="3.42049" fill="#338FFF" fill-opacity="0.87"/>
<circle cx="175.58" cy="66.8551" r="3.42049" fill="#338FFF" fill-opacity="0.87"/>
<circle cx="6.42049" cy="77.4275" r="3.42049" fill="#338FFF" fill-opacity="0.87"/>
<circle cx="16.993" cy="77.4275" r="3.42049" fill="#338FFF" fill-opacity="0.87"/>
<circle cx="27.5654" cy="77.4275" r="3.42049" fill="#338FFF" fill-opacity="0.87"/>
<circle cx="38.1378" cy="77.4275" r="3.42049" fill="#338FFF" fill-opacity="0.87"/>
<circle cx="48.7103" cy="77.4275" r="3.42049" fill="#338FFF" fill-opacity="0.87"/>
<circle cx="59.2827" cy="77.4275" r="3.42049" fill="#338FFF" fill-opacity="0.87"/>
<circle cx="69.8551" cy="77.4275" r="3.42049" fill="#338FFF" fill-opacity="0.87"/>
<circle cx="80.4276" cy="77.4275" r="3.42049" fill="#338FFF" fill-opacity="0.87"/>
<circle cx="91" cy="77.4275" r="3.42049" fill="#338FFF" fill-opacity="0.87"/>
<circle cx="101.572" cy="77.4275" r="3.42049" fill="#338FFF" fill-opacity="0.87"/>
<circle cx="112.145" cy="77.4275" r="3.42049" fill="#338FFF" fill-opacity="0.87"/>
<circle cx="122.717" cy="77.4275" r="3.42049" fill="#338FFF" fill-opacity="0.87"/>
<circle cx="133.29" cy="77.4275" r="3.42049" fill="#338FFF" fill-opacity="0.87"/>
<circle cx="143.862" cy="77.4275" r="3.42049" fill="#338FFF" fill-opacity="0.87"/>
<circle cx="154.435" cy="77.4275" r="3.42049" fill="#338FFF" fill-opacity="0.87"/>
<circle cx="165.007" cy="77.4275" r="3.42049" fill="#338FFF" fill-opacity="0.87"/>
<circle cx="175.58" cy="77.4275" r="3.42049" fill="#338FFF" fill-opacity="0.87"/>
<circle cx="6.42049" cy="88" r="3.42049" fill="#338FFF" fill-opacity="0.87"/>
<circle cx="16.993" cy="88" r="3.42049" fill="#338FFF" fill-opacity="0.87"/>
<circle cx="27.5654" cy="88" r="3.42049" fill="#338FFF" fill-opacity="0.87"/>
<circle cx="38.1378" cy="88" r="3.42049" fill="#338FFF" fill-opacity="0.87"/>
<circle cx="48.7103" cy="88" r="3.42049" fill="#338FFF" fill-opacity="0.87"/>
<circle cx="59.2827" cy="88" r="3.42049" fill="#338FFF" fill-opacity="0.87"/>
<circle cx="69.8551" cy="88" r="3.42049" fill="#338FFF" fill-opacity="0.87"/>
<circle cx="80.4276" cy="88" r="3.42049" fill="#338FFF" fill-opacity="0.87"/>
<circle cx="91" cy="88" r="3.42049" fill="#338FFF" fill-opacity="0.87"/>
<circle cx="101.572" cy="88" r="3.42049" fill="#338FFF" fill-opacity="0.87"/>
<circle cx="112.145" cy="88" r="3.42049" fill="#338FFF" fill-opacity="0.87"/>
<circle cx="122.717" cy="88" r="3.42049" fill="#338FFF" fill-opacity="0.87"/>
<circle cx="133.29" cy="88" r="3.42049" fill="#338FFF" fill-opacity="0.87"/>
<circle cx="143.862" cy="88" r="3.42049" fill="#338FFF" fill-opacity="0.87"/>
<circle cx="154.435" cy="88" r="3.42049" fill="#338FFF" fill-opacity="0.87"/>
<circle cx="165.007" cy="88" r="3.42049" fill="#338FFF" fill-opacity="0.87"/>
<circle cx="175.58" cy="88" r="3.42049" fill="#338FFF" fill-opacity="0.87"/>
<circle cx="6.42049" cy="98.5724" r="3.42049" fill="#338FFF" fill-opacity="0.87"/>
<circle cx="16.993" cy="98.5724" r="3.42049" fill="#338FFF" fill-opacity="0.87"/>
<circle cx="27.5654" cy="98.5724" r="3.42049" fill="#338FFF" fill-opacity="0.87"/>
<circle cx="38.1378" cy="98.5724" r="3.42049" fill="#338FFF" fill-opacity="0.87"/>
<circle cx="48.7103" cy="98.5724" r="3.42049" fill="#338FFF" fill-opacity="0.87"/>
<circle cx="59.2827" cy="98.5724" r="3.42049" fill="#338FFF" fill-opacity="0.87"/>
<circle cx="69.8551" cy="98.5724" r="3.42049" fill="#338FFF" fill-opacity="0.87"/>
<circle cx="80.4276" cy="98.5724" r="3.42049" fill="#338FFF" fill-opacity="0.87"/>
<circle cx="91" cy="98.5724" r="3.42049" fill="#338FFF" fill-opacity="0.87"/>
<circle cx="101.572" cy="98.5724" r="3.42049" fill="#338FFF" fill-opacity="0.87"/>
<circle cx="112.145" cy="98.5724" r="3.42049" fill="#338FFF" fill-opacity="0.87"/>
<circle cx="122.717" cy="98.5724" r="3.42049" fill="#338FFF" fill-opacity="0.87"/>
<circle cx="133.29" cy="98.5724" r="3.42049" fill="#338FFF" fill-opacity="0.87"/>
<circle cx="143.862" cy="98.5724" r="3.42049" fill="#338FFF" fill-opacity="0.87"/>
<circle cx="154.435" cy="98.5724" r="3.42049" fill="#338FFF" fill-opacity="0.87"/>
<circle cx="165.007" cy="98.5724" r="3.42049" fill="#338FFF" fill-opacity="0.87"/>
<circle cx="175.58" cy="98.5724" r="3.42049" fill="#338FFF" fill-opacity="0.87"/>
<circle cx="6.42049" cy="109.145" r="3.42049" fill="#338FFF" fill-opacity="0.87"/>
<circle cx="16.993" cy="109.145" r="3.42049" fill="#338FFF" fill-opacity="0.87"/>
<circle cx="27.5654" cy="109.145" r="3.42049" fill="#338FFF" fill-opacity="0.87"/>
<circle cx="38.1378" cy="109.145" r="3.42049" fill="#338FFF" fill-opacity="0.87"/>
<circle cx="48.7103" cy="109.145" r="3.42049" fill="#338FFF" fill-opacity="0.87"/>
<circle cx="59.2827" cy="109.145" r="3.42049" fill="#338FFF" fill-opacity="0.87"/>
<circle cx="69.8551" cy="109.145" r="3.42049" fill="#338FFF" fill-opacity="0.87"/>
<circle cx="80.4276" cy="109.145" r="3.42049" fill="#338FFF" fill-opacity="0.87"/>
<circle cx="91" cy="109.145" r="3.42049" fill="#338FFF" fill-opacity="0.87"/>
<circle cx="101.572" cy="109.145" r="3.42049" fill="#338FFF" fill-opacity="0.87"/>
<circle cx="112.145" cy="109.145" r="3.42049" fill="#338FFF" fill-opacity="0.87"/>
<circle cx="122.717" cy="109.145" r="3.42049" fill="#338FFF" fill-opacity="0.87"/>
<circle cx="133.29" cy="109.145" r="3.42049" fill="#338FFF" fill-opacity="0.87"/>
<circle cx="143.862" cy="109.145" r="3.42049" fill="#338FFF" fill-opacity="0.87"/>
<circle cx="154.435" cy="109.145" r="3.42049" fill="#338FFF" fill-opacity="0.87"/>
<circle cx="165.007" cy="109.145" r="3.42049" fill="#338FFF" fill-opacity="0.87"/>
<circle cx="175.58" cy="109.145" r="3.42049" fill="#338FFF" fill-opacity="0.87"/>
</g>
<defs>
<filter id="filter0_d" x="0" y="0" width="182" height="119.565" filterUnits="userSpaceOnUse" color-interpolation-filters="sRGB">
<feFlood flood-opacity="0" result="BackgroundImageFix"/>
<feColorMatrix in="SourceAlpha" type="matrix" values="0 0 0 0 0 0 0 0 0 0 0 0 0 0 0 0 0 0 127 0"/>
<feOffset dy="4"/>
<feGaussianBlur stdDeviation="1.5"/>
<feColorMatrix type="matrix" values="0 0 0 0 0.2 0 0 0 0 0.560784 0 0 0 0 1 0 0 0 0.18 0"/>
<feBlend mode="normal" in2="BackgroundImageFix" result="effect1_dropShadow"/>
<feBlend mode="normal" in="SourceGraphic" in2="effect1_dropShadow" result="shape"/>
</filter>
</defs>
</svg>
