<svg width="85" height="99" viewBox="0 0 85 99" fill="none" xmlns="http://www.w3.org/2000/svg">
<g filter="url(#filter0_d)">
<circle cx="4.56539" cy="3.42049" r="3.42049" fill="#FF5D4D" fill-opacity="0.87"/>
<circle cx="15.1378" cy="3.42049" r="3.42049" fill="#FF5D4D" fill-opacity="0.87"/>
<circle cx="25.7103" cy="3.42049" r="3.42049" fill="#FF5D4D" fill-opacity="0.87"/>
<circle cx="36.2827" cy="3.42049" r="3.42049" fill="#FF5D4D" fill-opacity="0.87"/>
<circle cx="46.8551" cy="3.42049" r="3.42049" fill="#FF5D4D" fill-opacity="0.87"/>
<circle cx="57.4276" cy="3.42049" r="3.42049" fill="#FF5D4D" fill-opacity="0.87"/>
<circle cx="68" cy="3.42049" r="3.42049" fill="#FF5D4D" fill-opacity="0.87"/>
<circle cx="78.5725" cy="3.42049" r="3.42049" fill="#FF5D4D" fill-opacity="0.87"/>
<circle cx="4.56539" cy="13.993" r="3.42049" fill="#FF5D4D" fill-opacity="0.87"/>
<circle cx="15.1378" cy="13.993" r="3.42049" fill="#FF5D4D" fill-opacity="0.87"/>
<circle cx="25.7103" cy="13.993" r="3.42049" fill="#FF5D4D" fill-opacity="0.87"/>
<circle cx="36.2827" cy="13.993" r="3.42049" fill="#FF5D4D" fill-opacity="0.87"/>
<circle cx="46.8551" cy="13.993" r="3.42049" fill="#FF5D4D" fill-opacity="0.87"/>
<circle cx="57.4276" cy="13.993" r="3.42049" fill="#FF5D4D" fill-opacity="0.87"/>
<circle cx="68" cy="13.993" r="3.42049" fill="#FF5D4D" fill-opacity="0.87"/>
<circle cx="78.5725" cy="13.993" r="3.42049" fill="#FF5D4D" fill-opacity="0.87"/>
<circle cx="4.56539" cy="24.5653" r="3.42049" fill="#FF5D4D" fill-opacity="0.87"/>
<circle cx="15.1378" cy="24.5653" r="3.42049" fill="#FF5D4D" fill-opacity="0.87"/>
<circle cx="25.7103" cy="24.5653" r="3.42049" fill="#FF5D4D" fill-opacity="0.87"/>
<circle cx="36.2827" cy="24.5653" r="3.42049" fill="#FF5D4D" fill-opacity="0.87"/>
<circle cx="46.8551" cy="24.5653" r="3.42049" fill="#FF5D4D" fill-opacity="0.87"/>
<circle cx="57.4276" cy="24.5653" r="3.42049" fill="#FF5D4D" fill-opacity="0.87"/>
<circle cx="68" cy="24.5653" r="3.42049" fill="#FF5D4D" fill-opacity="0.87"/>
<circle cx="78.5725" cy="24.5653" r="3.42049" fill="#FF5D4D" fill-opacity="0.87"/>
<circle cx="4.56539" cy="35.1378" r="3.42049" fill="#FF5D4D" fill-opacity="0.87"/>
<circle cx="15.1378" cy="35.1378" r="3.42049" fill="#FF5D4D" fill-opacity="0.87"/>
<circle cx="25.7103" cy="35.1378" r="3.42049" fill="#FF5D4D" fill-opacity="0.87"/>
<circle cx="36.2827" cy="35.1378" r="3.42049" fill="#FF5D4D" fill-opacity="0.87"/>
<circle cx="46.8551" cy="35.1378" r="3.42049" fill="#FF5D4D" fill-opacity="0.87"/>
<circle cx="57.4276" cy="35.1378" r="3.42049" fill="#FF5D4D" fill-opacity="0.87"/>
<circle cx="68" cy="35.1378" r="3.42049" fill="#FF5D4D" fill-opacity="0.87"/>
<circle cx="78.5725" cy="35.1378" r="3.42049" fill="#FF5D4D" fill-opacity="0.87"/>
<circle cx="4.56539" cy="45.7103" r="3.42049" fill="#FF5D4D" fill-opacity="0.87"/>
<circle cx="15.1378" cy="45.7103" r="3.42049" fill="#FF5D4D" fill-opacity="0.87"/>
<circle cx="25.7103" cy="45.7103" r="3.42049" fill="#FF5D4D" fill-opacity="0.87"/>
<circle cx="36.2827" cy="45.7103" r="3.42049" fill="#FF5D4D" fill-opacity="0.87"/>
<circle cx="46.8551" cy="45.7103" r="3.42049" fill="#FF5D4D" fill-opacity="0.87"/>
<circle cx="57.4276" cy="45.7103" r="3.42049" fill="#FF5D4D" fill-opacity="0.87"/>
<circle cx="68" cy="45.7103" r="3.42049" fill="#FF5D4D" fill-opacity="0.87"/>
<circle cx="78.5725" cy="45.7103" r="3.42049" fill="#FF5D4D" fill-opacity="0.87"/>
<circle cx="4.56539" cy="56.2826" r="3.42049" fill="#FF5D4D" fill-opacity="0.87"/>
<circle cx="15.1378" cy="56.2826" r="3.42049" fill="#FF5D4D" fill-opacity="0.87"/>
<circle cx="25.7103" cy="56.2826" r="3.42049" fill="#FF5D4D" fill-opacity="0.87"/>
<circle cx="36.2827" cy="56.2826" r="3.42049" fill="#FF5D4D" fill-opacity="0.87"/>
<circle cx="46.8551" cy="56.2826" r="3.42049" fill="#FF5D4D" fill-opacity="0.87"/>
<circle cx="57.4276" cy="56.2826" r="3.42049" fill="#FF5D4D" fill-opacity="0.87"/>
<circle cx="68" cy="56.2826" r="3.42049" fill="#FF5D4D" fill-opacity="0.87"/>
<circle cx="78.5725" cy="56.2826" r="3.42049" fill="#FF5D4D" fill-opacity="0.87"/>
<circle cx="4.56539" cy="66.8551" r="3.42049" fill="#FF5D4D" fill-opacity="0.87"/>
<circle cx="15.1378" cy="66.8551" r="3.42049" fill="#FF5D4D" fill-opacity="0.87"/>
<circle cx="25.7103" cy="66.8551" r="3.42049" fill="#FF5D4D" fill-opacity="0.87"/>
<circle cx="36.2827" cy="66.8551" r="3.42049" fill="#FF5D4D" fill-opacity="0.87"/>
<circle cx="46.8551" cy="66.8551" r="3.42049" fill="#FF5D4D" fill-opacity="0.87"/>
<circle cx="57.4276" cy="66.8551" r="3.42049" fill="#FF5D4D" fill-opacity="0.87"/>
<circle cx="68" cy="66.8551" r="3.42049" fill="#FF5D4D" fill-opacity="0.87"/>
<circle cx="78.5725" cy="66.8551" r="3.42049" fill="#FF5D4D" fill-opacity="0.87"/>
<circle cx="4.56539" cy="77.4275" r="3.42049" fill="#FF5D4D" fill-opacity="0.87"/>
<circle cx="15.1378" cy="77.4275" r="3.42049" fill="#FF5D4D" fill-opacity="0.87"/>
<circle cx="25.7103" cy="77.4275" r="3.42049" fill="#FF5D4D" fill-opacity="0.87"/>
<circle cx="36.2827" cy="77.4275" r="3.42049" fill="#FF5D4D" fill-opacity="0.87"/>
<circle cx="46.8551" cy="77.4275" r="3.42049" fill="#FF5D4D" fill-opacity="0.87"/>
<circle cx="57.4276" cy="77.4275" r="3.42049" fill="#FF5D4D" fill-opacity="0.87"/>
<circle cx="68" cy="77.4275" r="3.42049" fill="#FF5D4D" fill-opacity="0.87"/>
<circle cx="78.5725" cy="77.4275" r="3.42049" fill="#FF5D4D" fill-opacity="0.87"/>
<circle cx="4.56539" cy="88" r="3.42049" fill="#FF5D4D" fill-opacity="0.87"/>
<circle cx="15.1378" cy="88" r="3.42049" fill="#FF5D4D" fill-opacity="0.87"/>
<circle cx="25.7103" cy="88" r="3.42049" fill="#FF5D4D" fill-opacity="0.87"/>
<circle cx="36.2827" cy="88" r="3.42049" fill="#FF5D4D" fill-opacity="0.87"/>
<circle cx="46.8551" cy="88" r="3.42049" fill="#FF5D4D" fill-opacity="0.87"/>
<circle cx="57.4276" cy="88" r="3.42049" fill="#FF5D4D" fill-opacity="0.87"/>
<circle cx="68" cy="88" r="3.42049" fill="#FF5D4D" fill-opacity="0.87"/>
<circle cx="78.5725" cy="88" r="3.42049" fill="#FF5D4D" fill-opacity="0.87"/>
</g>
<defs>
<filter id="filter0_d" x="-23" y="0" width="107.993" height="98.4205" filterUnits="userSpaceOnUse" color-interpolation-filters="sRGB">
<feFlood flood-opacity="0" result="BackgroundImageFix"/>
<feColorMatrix in="SourceAlpha" type="matrix" values="0 0 0 0 0 0 0 0 0 0 0 0 0 0 0 0 0 0 127 0"/>
<feOffset dy="4"/>
<feGaussianBlur stdDeviation="1.5"/>
<feColorMatrix type="matrix" values="0 0 0 0 1 0 0 0 0 0.364706 0 0 0 0 0.301961 0 0 0 0.18 0"/>
<feBlend mode="normal" in2="BackgroundImageFix" result="effect1_dropShadow"/>
<feBlend mode="normal" in="SourceGraphic" in2="effect1_dropShadow" result="shape"/>
</filter>
</defs>
</svg>
