<svg width="30" height="26" viewBox="0 0 30 26" fill="none" xmlns="http://www.w3.org/2000/svg">
<rect x="12.5874" y="1.66119" width="15.5206" height="22.8524" rx="3" stroke="#00FF66" stroke-width="2"/>
<mask id="path-2-outside-1" maskUnits="userSpaceOnUse" x="0.0493164" y="6.02195" width="21" height="15" fill="black">
<rect fill="white" x="0.0493164" y="6.02195" width="21" height="15"/>
<path fill-rule="evenodd" clip-rule="evenodd" d="M12.0592 8.39101C12.5513 7.89893 13.3491 7.89893 13.8412 8.39101L18.0389 12.5887C18.0411 12.5909 18.0434 12.5931 18.0456 12.5953C18.5377 13.0874 18.5377 13.8852 18.0456 14.3773L13.8413 18.5816C13.3492 19.0737 12.5514 19.0737 12.0593 18.5816C11.5672 18.0895 11.5672 17.2917 12.0593 16.7996L14.1125 14.7464H3.30938C2.61347 14.7464 2.04932 14.1822 2.04932 13.4863C2.04932 12.7904 2.61347 12.2262 3.30938 12.2262H14.1124L12.0592 10.173C11.5671 9.68093 11.5671 8.8831 12.0592 8.39101Z"/>
</mask>
<path fill-rule="evenodd" clip-rule="evenodd" d="M12.0592 8.39101C12.5513 7.89893 13.3491 7.89893 13.8412 8.39101L18.0389 12.5887C18.0411 12.5909 18.0434 12.5931 18.0456 12.5953C18.5377 13.0874 18.5377 13.8852 18.0456 14.3773L13.8413 18.5816C13.3492 19.0737 12.5514 19.0737 12.0593 18.5816C11.5672 18.0895 11.5672 17.2917 12.0593 16.7996L14.1125 14.7464H3.30938C2.61347 14.7464 2.04932 14.1822 2.04932 13.4863C2.04932 12.7904 2.61347 12.2262 3.30938 12.2262H14.1124L12.0592 10.173C11.5671 9.68093 11.5671 8.8831 12.0592 8.39101Z" fill="#00FF66"/>
<path d="M13.8412 8.39101L12.427 9.80523L12.427 9.80523L13.8412 8.39101ZM12.0592 8.39101L13.4734 9.80523L13.4734 9.80523L12.0592 8.39101ZM18.0389 12.5887L16.6247 14.0029L16.6299 14.0081L16.6351 14.0133L18.0389 12.5887ZM18.0456 12.5953L16.6314 14.0095V14.0095L18.0456 12.5953ZM18.0456 14.3773L16.6314 12.9631V12.9631L18.0456 14.3773ZM13.8413 18.5816L15.2555 19.9958L15.2555 19.9958L13.8413 18.5816ZM14.1125 14.7464L15.5267 16.1606L18.9409 12.7464H14.1125V14.7464ZM14.1124 12.2262V14.2262H18.9409L15.5267 10.812L14.1124 12.2262ZM12.0592 10.173L10.645 11.5872L10.645 11.5872L12.0592 10.173ZM15.2554 6.9768C13.9823 5.70367 11.9181 5.70367 10.645 6.9768L13.4734 9.80523C13.1845 10.0942 12.716 10.0942 12.427 9.80523L15.2554 6.9768ZM19.4531 11.1745L15.2554 6.9768L12.427 9.80523L16.6247 14.0029L19.4531 11.1745ZM16.6351 14.0133C16.6339 14.012 16.6326 14.0108 16.6314 14.0095L19.4598 11.1811C19.4541 11.1754 19.4484 11.1698 19.4427 11.1641L16.6351 14.0133ZM16.6314 14.0095C16.3424 13.7206 16.3424 13.2521 16.6314 12.9631L19.4598 15.7915C20.7329 14.5184 20.7329 12.4542 19.4598 11.1811L16.6314 14.0095ZM16.6314 12.9631L12.4271 17.1674L15.2555 19.9958L19.4598 15.7915L16.6314 12.9631ZM12.4271 17.1674C12.716 16.8784 13.1845 16.8784 13.4735 17.1674L10.6451 19.9958C11.9182 21.2689 13.9823 21.2689 15.2555 19.9958L12.4271 17.1674ZM13.4735 17.1674C13.7624 17.4563 13.7624 17.9248 13.4735 18.2138L10.6451 15.3854C9.37192 16.6585 9.37192 18.7227 10.6451 19.9958L13.4735 17.1674ZM13.4735 18.2138L15.5267 16.1606L12.6983 13.3322L10.6451 15.3854L13.4735 18.2138ZM3.30938 16.7464H14.1125V12.7464H3.30938V16.7464ZM0.0493164 13.4863C0.0493164 15.2868 1.50889 16.7464 3.30938 16.7464V12.7464C3.71804 12.7464 4.04932 13.0777 4.04932 13.4863H0.0493164ZM3.30938 10.2262C1.50889 10.2262 0.0493164 11.6858 0.0493164 13.4863H4.04932C4.04932 13.895 3.71804 14.2262 3.30938 14.2262V10.2262ZM14.1124 10.2262H3.30938V14.2262H14.1124V10.2262ZM10.645 11.5872L12.6982 13.6405L15.5267 10.812L13.4734 8.7588L10.645 11.5872ZM10.645 6.9768C9.37188 8.24994 9.37188 10.3141 10.645 11.5872L13.4734 8.75881C13.7624 9.04777 13.7624 9.51627 13.4734 9.80523L10.645 6.9768Z" fill="white" mask="url(#path-2-outside-1)"/>
</svg>
