<svg width="32" height="24" viewBox="0 0 32 24" fill="none" xmlns="http://www.w3.org/2000/svg">
<rect x="1.25879" y="22.1141" width="20.3769" height="29.7408" rx="3" transform="rotate(-90 1.25879 22.1141)" stroke="#3C4854" stroke-width="2"/>
<path fill-rule="evenodd" clip-rule="evenodd" d="M17.3054 13.8889C18.7573 13.3984 19.8025 12.0252 19.8025 10.4079C19.8025 8.37915 18.1579 6.73454 16.1292 6.73454C14.1004 6.73454 12.4558 8.37915 12.4558 10.4079C12.4558 12.0252 13.5011 13.3985 14.9529 13.8889C13.7108 14.1237 12.5575 14.7271 11.6509 15.6337C10.4632 16.8214 9.7959 18.4323 9.7959 20.112L16.1292 20.112H22.4626C22.4626 18.4323 21.7953 16.8214 20.6076 15.6337C19.7009 14.727 18.5477 14.1236 17.3054 13.8889Z" fill="#338EFF"/>
<path fill-rule="evenodd" clip-rule="evenodd" d="M17.3992 13.8771L16.6064 15.3873L17.3992 17.898L16.1833 19.6003L16.1805 19.7476L16.1293 19.676L16.0779 19.748L16.075 19.5999L14.8594 17.8979L15.6521 15.3875L14.8594 13.8776H15.9646L15.9646 13.8771H17.3992Z" fill="white"/>
</svg>
