<svg xmlns="http://www.w3.org/2000/svg" viewBox="0 0 580.53 188.72"><defs><style>.cls-1{isolation:isolate;}.cls-2{fill:#3c4552;}.cls-3{fill:#338fff;}.cls-3,.cls-4{mix-blend-mode:multiply;}.cls-4{fill:#ff5d4d;}</style></defs><title>logo_1</title><g class="cls-1"><g id="Layer_2" data-name="Layer 2"><g id="Layer_1-2" data-name="Layer 1"><path class="cls-2" d="M130.74,80v70q0,8.37-4.8,13.25t-15,4.87q-10.2,0-15-4.87t-4.73-13.23v-70a40.53,40.53,0,0,1-20.86,0V151.7q0,16.89,11.42,26.94t29.23,10q18,0,29.37-10t11.42-26.94V80Z"/><path class="cls-2" d="M197.71,166.49h40.64v20.1H176.7V80h21Z"/><path class="cls-2" d="M270.47,156.6q4,14.31,21.46,14.31,11.26,0,17-7.61l15.83,9.13q-11.26,16.29-33.18,16.29-18.88,0-30.29-11.42t-11.42-28.77q0-17.19,11.26-28.69t29-11.47q16.75,0,27.63,11.57t10.89,28.61a46.44,46.44,0,0,1-.77,8.07Zm-.26-15.23H309q-1.68-7.77-6.93-11.57a19.81,19.81,0,0,0-12-3.81q-7.9,0-13.09,4A19.24,19.24,0,0,0,270.21,141.37Z"/><path class="cls-2" d="M405.64,110.48h19.63v76.11H405.64v-9q-8.83,11.1-24.82,11.12-15.21,0-26.1-11.65t-10.88-28.54q0-16.89,10.88-28.54t26.1-11.61q16,0,24.82,11.11ZM369.41,164a20.29,20.29,0,0,0,15.07,6,20.54,20.54,0,0,0,15.14-6q6-6,6-15.45t-6-15.45a20.46,20.46,0,0,0-15.14-6,20.25,20.25,0,0,0-15.07,6q-5.94,6-5.94,15.45T369.41,164Z"/><path class="cls-2" d="M468.8,123.57a20.49,20.49,0,0,1,9.06-11,27.57,27.57,0,0,1,14.08-3.66v22a23.14,23.14,0,0,0-16.06,3.66q-7.08,4.71-7.08,15.68v36.38H449.21V110.48h19.63Z"/><path class="cls-2" d="M551.76,108.37q12.48,0,20.63,8.37t8.14,23.14v46.73H560.89v-44.3q0-7.6-4.11-11.64t-11-4q-7.6,0-12.17,4.72T529,145.55v41.1h-19.6V110.48h19.64V119Q536.21,108.37,551.76,108.37Z"/><path class="cls-3" d="M0,121.77V41H40.38A40.38,40.38,0,0,1,80.76,81.4h0a40.38,40.38,0,0,1-40.38,40.38H0Z"/><path class="cls-4" d="M121.13,0V40.38a40.38,40.38,0,1,1-80.75,1.27c0-.42,0-.85,0-1.27V0Z"/></g></g></g></svg>