<svg width="41" height="42" viewBox="0 0 41 42" fill="none" xmlns="http://www.w3.org/2000/svg">
<circle cx="20.7742" cy="21" r="20.2257" fill="#F5F5F5"/>
<mask id="mask0" mask-type="alpha" maskUnits="userSpaceOnUse" x="0" y="0" width="41" height="42">
<circle cx="20.7742" cy="21" r="20.2257" fill="#C4C4C4"/>
</mask>
<g mask="url(#mask0)">
<path d="M32.6423 49.4166L7.79874 49.4166L7.79874 36.9933C7.79874 33.6984 9.10762 30.5385 11.4374 28.2087C13.7673 25.8789 16.9272 24.57 20.2221 24.57C23.5169 24.57 26.6769 25.8789 29.0067 28.2087C31.3365 30.5385 32.6454 33.6984 32.6454 36.9933L32.6454 49.4166L32.6423 49.4166Z" fill="#338EFF"/>
<path d="M28.5985 11.7273V19.742C28.6148 20.805 28.4245 21.8607 28.0386 22.8476C27.6527 23.8346 27.079 24.733 26.3508 25.4906C25.6226 26.2483 24.7546 26.85 23.7971 27.2607C22.8397 27.6714 21.8121 27.8829 20.7741 27.8829C19.7361 27.8829 18.7085 27.6714 17.751 27.2607C16.7936 26.85 15.9255 26.2483 15.1974 25.4906C14.4692 24.733 13.8954 23.8346 13.5096 22.8476C13.1237 21.8607 12.9334 20.805 12.9497 19.742V11.7273H28.5985Z" fill="#FF5C4D"/>
</g>
</svg>
