<svg width="23" height="23" viewBox="0 0 23 23" fill="none" xmlns="http://www.w3.org/2000/svg">
<path d="M16.25 1.49316H6.25C3.48858 1.49316 1.25 3.73174 1.25 6.49316V16.4932C1.25 19.2546 3.48858 21.4932 6.25 21.4932H16.25C19.0114 21.4932 21.25 19.2546 21.25 16.4932V6.49316C21.25 3.73174 19.0114 1.49316 16.25 1.49316Z" stroke="black" stroke-width="1.7" stroke-linecap="round" stroke-linejoin="round"/>
<path d="M15.25 10.8635C15.3734 11.6957 15.2312 12.5457 14.8437 13.2925C14.4562 14.0393 13.8431 14.6449 13.0916 15.0231C12.3401 15.4014 11.4884 15.5331 10.6577 15.3994C9.82708 15.2657 9.05971 14.8735 8.46479 14.2786C7.86987 13.6837 7.47768 12.9163 7.34402 12.0857C7.21035 11.255 7.34202 10.4034 7.72028 9.65184C8.09854 8.90032 8.70414 8.28721 9.45094 7.89971C10.1977 7.51221 11.0477 7.37005 11.88 7.49347C12.7289 7.61935 13.5148 8.01493 14.1216 8.62177C14.7285 9.22862 15.1241 10.0145 15.25 10.8635Z" stroke="black" stroke-width="1.7" stroke-linecap="round" stroke-linejoin="round"/>
<path d="M16.75 5.99316H16.76" stroke="black" stroke-width="1.7" stroke-linecap="round" stroke-linejoin="round"/>
</svg>
