<svg width="25" height="21" viewBox="0 0 25 21" fill="none" xmlns="http://www.w3.org/2000/svg">
<path d="M23.2048 1.53154C22.2472 2.20702 21.1869 2.72365 20.0648 3.06154C19.4626 2.36905 18.6622 1.87823 17.7719 1.65547C16.8816 1.4327 15.9443 1.48874 15.0869 1.81599C14.2295 2.14325 13.4933 2.72594 12.9778 3.48526C12.4624 4.24457 12.1925 5.14388 12.2048 6.06154V7.06154C10.4475 7.10711 8.70611 6.71735 7.13584 5.92699C5.56558 5.13662 4.21515 3.97018 3.20483 2.53154C3.20483 2.53154 -0.795166 11.5315 8.20483 15.5315C6.14536 16.9295 3.69199 17.6305 1.20483 17.5315C10.2048 22.5315 21.2048 17.5315 21.2048 6.03154C21.2039 5.75299 21.1771 5.47513 21.1248 5.20154C22.1454 4.19503 22.8657 2.92425 23.2048 1.53154Z" stroke="black" stroke-width="1.7" stroke-linecap="square" stroke-linejoin="round"/>
</svg>
