<svg width="25" height="19" viewBox="0 0 25 19" fill="none" xmlns="http://www.w3.org/2000/svg">
<path d="M22.7 4.18367C22.5812 3.70908 22.3393 3.27424 21.9986 2.92308C21.658 2.57191 21.2307 2.31686 20.76 2.18367C19.04 1.76367 12.16 1.76367 12.16 1.76367C12.16 1.76367 5.28 1.76367 3.56 2.22367C3.08924 2.35686 2.66197 2.61191 2.32134 2.96308C1.98071 3.31424 1.73878 3.74908 1.62 4.22367C1.30521 5.96923 1.15123 7.73998 1.16 9.51367C1.14877 11.3007 1.30276 13.085 1.62 14.8437C1.75095 15.3035 1.9983 15.7218 2.33814 16.0582C2.67798 16.3945 3.09882 16.6375 3.56 16.7637C5.28 17.2237 12.16 17.2237 12.16 17.2237C12.16 17.2237 19.04 17.2237 20.76 16.7637C21.2307 16.6305 21.658 16.3754 21.9986 16.0243C22.3393 15.6731 22.5812 15.2383 22.7 14.7637C23.0124 13.0313 23.1663 11.274 23.16 9.51367C23.1712 7.72663 23.0172 5.94237 22.7 4.18367V4.18367Z" stroke="black" stroke-width="1.7" stroke-linecap="round" stroke-linejoin="round"/>
<path d="M9.90991 12.7841L15.6599 9.51414L9.90991 6.24414V12.7841Z" stroke="black" stroke-width="1.7" stroke-linecap="round" stroke-linejoin="round"/>
</svg>
