<svg width="59" height="61" viewBox="0 0 59 61" fill="none" xmlns="http://www.w3.org/2000/svg">
<g filter="url(#filter0_d)">
<ellipse cx="29.7295" cy="23.4179" rx="18.27" ry="18.8669" fill="white"/>
</g>
<path d="M38.2957 17.4269C37.8008 16.9156 37.2131 16.5099 36.5663 16.2332C35.9195 15.9564 35.2263 15.814 34.5261 15.814C33.826 15.814 33.1327 15.9564 32.4859 16.2332C31.8391 16.5099 31.2515 16.9156 30.7565 17.4269L29.7294 18.4877L28.7022 17.4269C27.7024 16.3945 26.3464 15.8145 24.9326 15.8145C23.5187 15.8145 22.1627 16.3945 21.163 17.4269C20.1632 18.4594 19.6016 19.8596 19.6016 21.3197C19.6016 22.7798 20.1632 24.18 21.163 25.2124L22.1902 26.2732L29.7294 34.0587L37.2685 26.2732L38.2957 25.2124C38.7909 24.7013 39.1837 24.0945 39.4517 23.4265C39.7197 22.7586 39.8577 22.0427 39.8577 21.3197C39.8577 20.5967 39.7197 19.8808 39.4517 19.2129C39.1837 18.5449 38.7909 17.9381 38.2957 17.4269V17.4269Z" stroke="#FF5C4D" stroke-width="2" stroke-linecap="round" stroke-linejoin="round"/>
<defs>
<filter id="filter0_d" x="0.459473" y="0.550949" width="58.5401" height="59.7338" filterUnits="userSpaceOnUse" color-interpolation-filters="sRGB">
<feFlood flood-opacity="0" result="BackgroundImageFix"/>
<feColorMatrix in="SourceAlpha" type="matrix" values="0 0 0 0 0 0 0 0 0 0 0 0 0 0 0 0 0 0 127 0"/>
<feOffset dy="7"/>
<feGaussianBlur stdDeviation="5.5"/>
<feColorMatrix type="matrix" values="0 0 0 0 0 0 0 0 0 0 0 0 0 0 0 0 0 0 0.19 0"/>
<feBlend mode="normal" in2="BackgroundImageFix" result="effect1_dropShadow"/>
<feBlend mode="normal" in="SourceGraphic" in2="effect1_dropShadow" result="shape"/>
</filter>
</defs>
</svg>
