<svg width="59" height="60" viewBox="0 0 59 60" fill="none" xmlns="http://www.w3.org/2000/svg">
<g filter="url(#filter0_d)">
<ellipse cx="29.27" cy="22.8669" rx="18.27" ry="18.8669" fill="white"/>
</g>
<path d="M38.2913 16.6118C37.7805 16.1008 37.1741 15.6955 36.5066 15.4189C35.8392 15.1423 35.1238 15 34.4013 15C33.6788 15 32.9634 15.1423 32.2959 15.4189C31.6285 15.6955 31.022 16.1008 30.5113 16.6118L29.8048 17.3183C29.6096 17.5135 29.293 17.5135 29.0977 17.3183L28.3913 16.6118C27.3596 15.5801 25.9603 15.0005 24.5013 15.0005C23.0423 15.0005 21.643 15.5801 20.6113 16.6118C19.5796 17.6435 19 19.0428 19 20.5018C19 21.9609 19.5796 23.3601 20.6113 24.3918L21.6713 25.4518L29.0977 32.8783C29.293 33.0735 29.6096 33.0735 29.8048 32.8783L37.2313 25.4518L38.2913 24.3918C38.8023 23.8811 39.2076 23.2746 39.4842 22.6072C39.7608 21.9397 39.9031 21.2243 39.9031 20.5018C39.9031 19.7793 39.7608 19.0639 39.4842 18.3965C39.2076 17.729 38.8023 17.1226 38.2913 16.6118Z" fill="#FF5C4D" stroke="#FF5C4D" stroke-width="2" stroke-linecap="round" stroke-linejoin="round"/>
<defs>
<filter id="filter0_d" x="0" y="0" width="58.5401" height="59.7338" filterUnits="userSpaceOnUse" color-interpolation-filters="sRGB">
<feFlood flood-opacity="0" result="BackgroundImageFix"/>
<feColorMatrix in="SourceAlpha" type="matrix" values="0 0 0 0 0 0 0 0 0 0 0 0 0 0 0 0 0 0 127 0"/>
<feOffset dy="7"/>
<feGaussianBlur stdDeviation="5.5"/>
<feColorMatrix type="matrix" values="0 0 0 0 0 0 0 0 0 0 0 0 0 0 0 0 0 0 0.19 0"/>
<feBlend mode="normal" in2="BackgroundImageFix" result="effect1_dropShadow"/>
<feBlend mode="normal" in="SourceGraphic" in2="effect1_dropShadow" result="shape"/>
</filter>
</defs>
</svg>
