<svg width="22" height="22" viewBox="0 0 22 22" fill="none" xmlns="http://www.w3.org/2000/svg">
<path d="M11.1275 20.3733C16.4497 20.3733 20.7642 16.0588 20.7642 10.7366C20.7642 5.41441 16.4497 1.09991 11.1275 1.09991C5.80534 1.09991 1.49084 5.41441 1.49084 10.7366C1.49084 16.0588 5.80534 20.3733 11.1275 20.3733Z" stroke="#13151A" stroke-width="1.8" stroke-linecap="round" stroke-linejoin="round"/>
<path d="M8.31836 7.84562C8.54492 7.20157 8.99211 6.65849 9.58072 6.31255C10.1693 5.96662 10.8614 5.84017 11.5343 5.95559C12.2072 6.07101 12.8176 6.42086 13.2572 6.94317C13.6969 7.46549 13.9376 8.12656 13.9366 8.80929C13.9366 10.7366 11.0455 11.7003 11.0455 11.7003V13.2047" stroke="#13151A" stroke-width="1.8" stroke-linecap="round" stroke-linejoin="round"/>
<path d="M11.1227 16.034V16.5738" stroke="#13151A" stroke-width="1.8" stroke-linecap="round" stroke-linejoin="round"/>
</svg>
