<svg width="19" height="23" viewBox="0 0 19 23" fill="none" xmlns="http://www.w3.org/2000/svg">
<path d="M13.8193 3.58154H15.8193C16.3497 3.58154 16.8584 3.79226 17.2335 4.16733C17.6086 4.5424 17.8193 5.05111 17.8193 5.58154V19.5815C17.8193 20.112 17.6086 20.6207 17.2335 20.9958C16.8584 21.3708 16.3497 21.5815 15.8193 21.5815H3.81931C3.28887 21.5815 2.78016 21.3708 2.40509 20.9958C2.03002 20.6207 1.81931 20.112 1.81931 19.5815V5.58154C1.81931 5.05111 2.03002 4.5424 2.40509 4.16733C2.78016 3.79226 3.28887 3.58154 3.81931 3.58154H5.81931" stroke="#338EFF" stroke-width="2" stroke-linecap="round" stroke-linejoin="round"/>
<path d="M12.8193 1.58154H6.81931C6.26702 1.58154 5.81931 2.02926 5.81931 2.58154V4.58154C5.81931 5.13383 6.26702 5.58154 6.81931 5.58154H12.8193C13.3716 5.58154 13.8193 5.13383 13.8193 4.58154V2.58154C13.8193 2.02926 13.3716 1.58154 12.8193 1.58154Z" stroke="#338EFF" stroke-width="2" stroke-linecap="round" stroke-linejoin="round"/>
</svg>
