<svg width="47" height="40" viewBox="0 0 47 40" fill="none" xmlns="http://www.w3.org/2000/svg">
<path d="M46.7033 35.5761C46.7033 36.7479 46.2214 37.8716 45.3636 38.7002C44.5059 39.5287 43.3425 39.9942 42.1294 39.9942H5.53803C4.32495 39.9942 3.16156 39.5287 2.30378 38.7002C1.446 37.8716 0.964111 36.7479 0.964111 35.5761V4.64953C0.964111 3.47778 1.446 2.35402 2.30378 1.52547C3.16156 0.69692 4.32495 0.231445 5.53803 0.231445H15.3982C16.3842 0.231445 17.3072 0.71591 17.8673 1.52737L20.6523 5.56265C21.2124 6.3741 22.1354 6.85857 23.1214 6.85857H42.1294C43.3425 6.85857 44.5059 7.32404 45.3636 8.15259C46.2214 8.98115 46.7033 10.1049 46.7033 11.2767V35.5761Z" fill="url(#paint0_linear)"/>
<defs>
<linearGradient id="paint0_linear" x1="0.964111" y1="1.75847" x2="45.3391" y2="41.5168" gradientUnits="userSpaceOnUse">
<stop stop-color="white"/>
<stop offset="1" stop-color="#EBEBEB"/>
</linearGradient>
</defs>
</svg>
