<svg width="24" height="21" viewBox="0 0 24 21" fill="none" xmlns="http://www.w3.org/2000/svg">
<path d="M21.1042 2.76515C20.5934 2.25415 19.987 1.84879 19.3195 1.57223C18.6521 1.29567 17.9366 1.15332 17.2142 1.15332C16.4917 1.15332 15.7763 1.29567 15.1088 1.57223C14.4413 1.84879 13.8349 2.25415 13.3242 2.76515L12.6177 3.47159C12.4224 3.66685 12.1059 3.66685 11.9106 3.47159L11.2042 2.76515C10.1725 1.73345 8.77319 1.15386 7.31416 1.15386C5.85512 1.15386 4.45585 1.73345 3.42416 2.76515C2.39246 3.79684 1.81287 5.19611 1.81287 6.65515C1.81287 8.11418 2.39246 9.51345 3.42416 10.5451L4.48416 11.6051L11.9106 19.0316C12.1059 19.2269 12.4224 19.2269 12.6177 19.0316L20.0442 11.6051L21.1042 10.5451C21.6152 10.0344 22.0205 9.42796 22.2971 8.7605C22.5736 8.09304 22.716 7.37763 22.716 6.65515C22.716 5.93266 22.5736 5.21725 22.2971 4.54979C22.0205 3.88233 21.6152 3.2759 21.1042 2.76515Z" fill="#FF5C4D" stroke="#FF5C4D" stroke-width="2" stroke-linecap="round" stroke-linejoin="round"/>
</svg>
