<svg width="15" height="18" viewBox="0 0 15 18" fill="none" xmlns="http://www.w3.org/2000/svg">
<path d="M1.48422 17.8675V15.8435L3.53122 15.6135V15.5445C2.50389 14.8545 1.74489 13.9652 1.25422 12.8765C0.763558 11.7725 0.518225 10.5535 0.518225 9.21952C0.518225 7.36419 0.932225 5.79252 1.76022 4.50452C2.58822 3.21652 3.77656 2.36552 5.32522 1.95152V0.157522H6.77422V1.69852C7.00423 1.68319 7.23423 1.67552 7.46422 1.67552C7.67889 1.67552 7.89356 1.68319 8.10822 1.69852V0.157522H9.55723V1.92852C11.1366 2.34252 12.3249 3.23952 13.1222 4.61952C13.9349 5.99952 14.3412 7.74752 14.3412 9.86352H11.4432C11.4432 8.37619 11.2976 7.18019 11.0062 6.27552C10.7149 5.35552 10.2319 4.69619 9.55723 4.29752V9.86352H8.10822V3.86052C7.90889 3.82986 7.69423 3.81452 7.46422 3.81452C7.21889 3.81452 6.98889 3.82986 6.77422 3.86052V9.86352H5.32522V4.32052C4.05256 5.07186 3.41622 6.79686 3.41622 9.49552C3.41622 11.3662 3.83789 12.8305 4.68123 13.8885C5.52456 14.9465 6.65923 15.4755 8.08523 15.4755H13.3752V17.8675H1.48422Z" fill="#00E267"/>
</svg>
