<svg width="23" height="23" viewBox="0 0 23 23" fill="none" xmlns="http://www.w3.org/2000/svg">
<path d="M11.7016 21.7529C17.2244 21.7529 21.7016 17.2758 21.7016 11.7529C21.7016 6.23008 17.2244 1.75293 11.7016 1.75293C6.17872 1.75293 1.70157 6.23008 1.70157 11.7529C1.70157 17.2758 6.17872 21.7529 11.7016 21.7529Z" stroke="#FF5C4D" stroke-width="2" stroke-linecap="round" stroke-linejoin="round"/>
<path d="M8.79156 8.75301C9.02667 8.08468 9.49072 7.52112 10.1015 7.16214C10.7123 6.80317 11.4305 6.67195 12.1287 6.79172C12.827 6.9115 13.4604 7.27454 13.9166 7.81654C14.3729 8.35854 14.6226 9.04453 14.6216 9.75301C14.6216 11.753 11.6216 12.753 11.6216 12.753" stroke="#FF5C4D" stroke-width="2" stroke-linecap="round" stroke-linejoin="round"/>
<path d="M11.7016 16.7529H11.7116" stroke="#FF5C4D" stroke-width="2" stroke-linecap="round" stroke-linejoin="round"/>
</svg>
