<svg width="18" height="17" viewBox="0 0 18 17" fill="none" xmlns="http://www.w3.org/2000/svg">
<path d="M7.99401 1.41497C8.37173 0.714397 9.37673 0.714397 9.75445 1.41497L11.6834 4.99273C11.8354 5.27475 12.1134 5.46683 12.431 5.50933L16.5911 6.06603C17.4383 6.17941 17.762 7.23465 17.124 7.80355L14.2328 10.3818C13.9713 10.6149 13.8509 10.9679 13.9154 11.3123L14.6128 15.0348C14.7637 15.8405 13.9345 16.4755 13.1961 16.12L9.30804 14.248C9.03389 14.116 8.71457 14.116 8.44042 14.248L4.5524 16.12C3.81391 16.4755 2.98477 15.8405 3.13569 15.0348L3.83306 11.3123C3.89756 10.9679 3.77717 10.6149 3.5157 10.3818L0.624446 7.80355C-0.0135249 7.23465 0.310129 6.17941 1.15736 6.06603L5.31748 5.50933C5.63505 5.46683 5.91302 5.27475 6.06507 4.99273L7.99401 1.41497Z" fill="#FFD703"/>
</svg>
