<svg width="20" height="20" viewBox="0 0 20 20" fill="none" xmlns="http://www.w3.org/2000/svg">
<path d="M9.10329 2.005C9.47013 1.26183 10.5299 1.26183 10.8967 2.005L12.8576 5.97746C13.0031 6.27231 13.2843 6.47677 13.6096 6.52432L17.9962 7.16549C18.8161 7.28533 19.1429 8.29317 18.5493 8.87133L15.3768 11.9614C15.1409 12.1911 15.0333 12.5222 15.0889 12.8468L15.8374 17.211C15.9775 18.028 15.12 18.6509 14.3864 18.2651L10.4655 16.2031C10.1741 16.0499 9.82593 16.0499 9.53455 16.2031L5.61363 18.2651C4.88 18.6509 4.02245 18.028 4.16257 17.211L4.91109 12.8468C4.96675 12.5223 4.85908 12.1911 4.62321 11.9614L1.45068 8.87133C0.857085 8.29317 1.18387 7.28533 2.00378 7.16549L6.39037 6.52432C6.71572 6.47677 6.99691 6.27231 7.14245 5.97746L9.10329 2.005Z" stroke="#FFC703" stroke-width="2" stroke-linecap="round" stroke-linejoin="round"/>
</svg>
