<svg width="20" height="19" viewBox="0 0 20 19" fill="none" xmlns="http://www.w3.org/2000/svg">
<path d="M8.45452 2.63952C9.04146 1.45045 10.737 1.45045 11.324 2.63952L12.6073 5.23945C12.8402 5.71121 13.2901 6.03835 13.8107 6.11443L16.6832 6.5343C17.9951 6.72605 18.5179 8.33859 17.5682 9.26365L15.4921 11.2857C15.1147 11.6533 14.9425 12.1831 15.0315 12.7024L15.5211 15.5571C15.7453 16.8643 14.3732 17.861 13.1994 17.2437L10.634 15.8946C10.1678 15.6494 9.61074 15.6494 9.14453 15.8946L6.57906 17.2437C5.40526 17.861 4.03318 16.8643 4.25737 15.5571L4.74699 12.7024C4.83605 12.1831 4.66379 11.6533 4.28639 11.2857L2.21034 9.26365C1.26059 8.33859 1.78344 6.72605 3.09531 6.5343L5.96784 6.11443C6.48841 6.03835 6.9383 5.71121 7.17117 5.23945L8.45452 2.63952Z" stroke="#FFD703" stroke-width="2" stroke-linecap="round" stroke-linejoin="round"/>
</svg>
