<svg width="24" height="21" viewBox="0 0 24 21" fill="none" xmlns="http://www.w3.org/2000/svg">
<path d="M20.7505 2.76515C20.2398 2.25415 19.6333 1.84879 18.9659 1.57223C18.2984 1.29567 17.583 1.15332 16.8605 1.15332C16.138 1.15332 15.4226 1.29567 14.7552 1.57223C14.0877 1.84879 13.4813 2.25415 12.9705 2.76515L12.2641 3.47159C12.0688 3.66685 11.7522 3.66685 11.557 3.47159L10.8505 2.76515C9.81883 1.73345 8.41955 1.15386 6.96052 1.15386C5.50149 1.15386 4.10221 1.73345 3.07052 2.76515C2.03883 3.79684 1.45923 5.19611 1.45923 6.65515C1.45923 8.11418 2.03883 9.51345 3.07052 10.5451L4.13052 11.6051L11.557 19.0316C11.7522 19.2269 12.0688 19.2269 12.2641 19.0316L19.6905 11.6051L20.7505 10.5451C21.2615 10.0344 21.6669 9.42796 21.9434 8.7605C22.22 8.09304 22.3623 7.37763 22.3623 6.65515C22.3623 5.93266 22.22 5.21725 21.9434 4.54979C21.6669 3.88233 21.2615 3.2759 20.7505 2.76515Z" stroke="#FF5C4D" stroke-width="2" stroke-linecap="round" stroke-linejoin="round"/>
</svg>
